<svg style="position:absolute;width:0;height:0" xmlns="http://www.w3.org/2000/svg" overflow="hidden"><defs><symbol id="icon-anchor" viewBox="0 0 32 32"><path fill="var(--color1, #e74c3c)" d="M27.473 17.856L24.83 13.96a.674.674 0 0 0-1.118 0l-2.643 3.896a.675.675 0 0 0 .559 1.056h1.304c-.563 2.319-2.895 4.177-5.355 4.762V8.742h2.101a1.05 1.05 0 1 0 0-2.102h-1.083a3.813 3.813 0 0 0 1.239-2.805c0-2.114-1.72-3.834-3.835-3.834s-3.834 1.72-3.834 3.834c0 1.111.482 2.104 1.239 2.805h-1.082a1.052 1.052 0 0 0 0 2.102h2.101v14.932c-2.46-.584-4.793-2.442-5.356-4.762h1.305a.676.676 0 0 0 .559-1.056L8.288 13.96a.675.675 0 0 0-1.118 0l-2.643 3.896a.675.675 0 0 0 .559 1.056h1.422c.529 3.607 3.64 7.287 7.142 8.503l-.262.321a.676.676 0 0 0-.04.8l2.087 3.161a.676.676 0 0 0 1.128 0l2.087-3.162a.674.674 0 0 0-.04-.799l-.262-.322c3.503-1.216 6.613-4.896 7.142-8.503h1.422a.676.676 0 0 0 .559-1.056zM16 2.101c.956 0 1.733.777 1.733 1.733S16.956 5.567 16 5.567a1.734 1.734 0 0 1 .001-3.466z"/></symbol><symbol id="icon-bulb" viewBox="0 0 32 32"><path fill="var(--color1, #e74c3c)" d="M20.677 26.83v1.209c0 .961-.706 1.752-1.627 1.876L18.756 31c-.17.582-.706 1-1.294 1H14.54c-.627 0-1.17-.418-1.294-1l-.294-1.085a1.89 1.89 0 0 1-1.627-1.876V26.83c0-.627.503-1.17 1.17-1.17h7.046c.634.046 1.137.549 1.137 1.17zm.921-4.941a2.748 2.748 0 0 1-2.693 2.301h-5.81c-1.359 0-2.497-.967-2.693-2.301a7.55 7.55 0 0 0-2.007-4.052 10.632 10.632 0 0 1-2.961-7.176C5.388 4.824 10.075.04 15.878.001h.078c5.85 0 10.608 4.726 10.608 10.529 0 2.719-1.078 5.386-2.961 7.314a7.383 7.383 0 0 0-2.007 4.046zm.347-5.667a8.223 8.223 0 0 0 2.307-5.699c0-4.529-3.719-8.209-8.294-8.209h-.065c-4.523.033-8.176 3.765-8.144 8.32a8.292 8.292 0 0 0 2.314 5.595 9.817 9.817 0 0 1 2.627 5.307c.033.235.229.333.405.333h1.81v-6.791l-2.418-2.418a1.1 1.1 0 0 1 0-1.549 1.1 1.1 0 0 1 1.549 0l1.961 1.961 1.961-1.961a1.1 1.1 0 0 1 1.549 0 1.1 1.1 0 0 1 0 1.549l-2.418 2.418v6.791h1.81a.422.422 0 0 0 .405-.34 9.721 9.721 0 0 1 2.641-5.307z"/></symbol><symbol id="icon-camera" viewBox="0 0 32 32"><path fill="var(--color1, #e74c3c)" d="M30.397 7.656h-6.706l-.227-1.602-.174-1.08c-.07-.435-.301-.796-.662-1.098-.37-.308-.766-.47-1.202-.47H10.521c-.436 0-.836.156-1.202.47s-.56.682-.627 1.098l-.174 1.08-.244 1.602H1.602c-.889 0-1.603.714-1.603 1.568v17.768c0 .888.714 1.602 1.603 1.602h28.794c.889 0 1.603-.714 1.603-1.602V9.224c0-.854-.714-1.568-1.603-1.568zm-.331 19.005H1.916V9.572h6.358c.958 0 1.785-.713 1.916-1.637l.226-1.602.174-.993h10.8l.157.993.244 1.602c.14.923.975 1.637 1.899 1.637h6.376v17.089z"/><path fill="var(--color1, #e74c3c)" d="M26.966 14.118c.836 0 1.533-.714 1.533-1.55 0-.854-.679-1.568-1.533-1.568s-1.533.714-1.533 1.568c0 .836.697 1.55 1.533 1.55zm-10.992-4.041c-1.968 0-3.675.714-5.086 2.125s-2.125 3.118-2.125 5.087c0 1.968.714 3.675 2.125 5.086s3.118 2.078 5.086 2.108c3.902.058 7.258-3.327 7.212-7.194-.023-1.986-.714-3.676-2.125-5.087s-3.101-2.125-5.087-2.125zm3.728 10.957c-1.027 1.027-2.264 1.533-3.728 1.533-1.446 0-2.682-.505-3.71-1.533s-1.533-2.282-1.533-3.745c0-1.446.505-2.7 1.533-3.728s2.265-1.55 3.71-1.55c1.463 0 2.7.523 3.728 1.55s1.55 2.282 1.55 3.728c0 1.463-.522 2.717-1.55 3.745z"/></symbol><symbol id="icon-computer" viewBox="0 0 32 32"><path fill="var(--color1, #e74c3c)" d="M30.461 3.5H1.539C.692 3.5 0 4.192 0 5.039v16.922c0 .846.693 1.539 1.539 1.539H13c0 .43-.223 2.271-1.117 4H10.5v.387c0 .337.275.613.613.613h9.775a.615.615 0 0 0 .613-.613V27.5h-1.383c-.895-1.729-1.117-3.57-1.117-4h11.461c.846 0 1.539-.692 1.539-1.539V5.039c0-.846-.692-1.539-1.539-1.539zM21.25 27.75v.137c0 .2-.163.363-.363.363h-9.775a.364.364 0 0 1-.363-.363v-.137h10.5zm-1.414-.25h-7.672c.867-1.722 1.086-3.564 1.086-4h5.5c0 .436.219 2.279 1.086 4zM31.5 21.961A1.04 1.04 0 0 1 30.461 23H1.539A1.04 1.04 0 0 1 .5 21.961V5.039A1.04 1.04 0 0 1 1.539 4h28.922A1.04 1.04 0 0 1 31.5 5.039v16.922z"/><path fill="var(--color1, #e74c3c)" d="M16.25 22.5a.25.25 0 1 1-.5 0 .25.25 0 0 1 .5 0zM29.469 5H2.53c-.569 0-1.031.462-1.031 1.031v14.938c0 .569.462 1.031 1.031 1.031h26.939c.569 0 1.031-.462 1.031-1.031V6.031C30.5 5.462 30.038 5 29.469 5zm.781 15.969c0 .431-.35.781-.781.781H2.53a.781.781 0 0 1-.781-.781V6.031c0-.431.35-.781.781-.781h26.939c.431 0 .781.35.781.781v14.938z"/></symbol><symbol id="icon-facebook" viewBox="0 0 32 32"><path d="M23.999.007L19.849 0c-4.662 0-7.675 3.091-7.675 7.875v3.631H8.002a.651.651 0 0 0-.652.652v5.261c0 .361.292.652.652.652h4.172v13.275c0 .361.292.653.652.653h5.444a.651.651 0 0 0 .652-.652V18.072H23.8a.651.651 0 0 0 .652-.652l.002-5.261a.652.652 0 0 0-.653-.652h-4.88V8.429c0-1.479.353-2.23 2.28-2.23l2.795-.001c.36 0 .652-.292.652-.652V.661a.652.652 0 0 0-.652-.652z"/></symbol><symbol id="icon-google" viewBox="0 0 32 32"><path d="M20.694 0h-7.632C9.661 0 7.307.746 5.188 2.496c-1.666 1.438-2.66 3.527-2.66 5.589 0 3.177 2.422 6.554 6.911 6.554.432 0 .909-.044 1.331-.083l-.062.151c-.18.432-.351.839-.351 1.476 0 1.239.598 2.004 1.176 2.742l.073.094-.129.009c-1.854.127-5.304.364-7.825 1.913C.675 22.711.444 25.285.444 26.032c0 2.97 2.768 5.969 8.953 5.969 7.191 0 10.954-3.968 10.954-7.886.001-2.898-1.699-4.329-3.503-5.849l-1.522-1.184c-.47-.39-1.056-.874-1.056-1.773 0-.883.586-1.466 1.103-1.981l.054-.055c1.644-1.294 3.506-2.762 3.506-5.937 0-3.192-1.995-4.842-2.954-5.634h2.533a.17.17 0 0 0 .088-.025L20.782.305c.062-.04.091-.115.071-.186S20.768 0 20.694 0zm-9.255 30.251c-4.384 0-7.329-2.047-7.329-5.095 0-1.99 1.205-3.436 3.577-4.296 1.9-.639 4.353-.671 4.377-.671.415 0 .625 0 .956.041 3.067 2.183 4.541 3.329 4.541 5.512 0 2.781-2.346 4.508-6.123 4.508zm-.041-16.782c-3.679 0-5.206-4.836-5.206-7.425 0-1.317.299-2.327.915-3.09.669-.837 1.813-1.377 2.917-1.377 3.378 0 5.246 4.541 5.246 7.679 0 .495 0 2.001-1.04 3.047-.7.698-1.838 1.167-2.832 1.167zm19.992 1.477h-4.021v-4.007a.165.165 0 0 0-.165-.165h-1.73a.165.165 0 0 0-.165.165v4.007h-4.001a.165.165 0 0 0-.165.165v1.753c0 .091.074.165.165.165h4.001v4.033c0 .091.074.165.165.165h1.73a.165.165 0 0 0 .165-.165v-4.034h4.021a.165.165 0 0 0 .165-.165v-1.752a.165.165 0 0 0-.165-.165z"/></symbol><symbol id="icon-heart" viewBox="0 0 32 32"><path fill="var(--color1, #e74c3c)" d="M31.946 9.996c-.466-5.141-4.105-8.871-8.659-8.871-3.034 0-5.813 1.633-7.376 4.249-1.549-2.651-4.213-4.25-7.199-4.25-4.554 0-8.193 3.729-8.659 8.871-.037.228-.189 1.423.271 3.373.665 2.811 2.197 5.368 4.431 7.392l11.148 10.117 11.34-10.119c2.234-2.025 3.766-4.581 4.43-7.393.46-1.949.309-3.145.273-3.371zm-1.47 3.089c-.605 2.566-2.009 4.906-4.056 6.76L15.912 29.22 5.583 19.847c-2.049-1.857-3.453-4.196-4.059-6.763-.436-1.844-.257-2.886-.256-2.892l.009-.063c.4-4.505 3.526-7.774 7.436-7.774 2.884 0 5.424 1.772 6.628 4.625l.567 1.344.566-1.343c1.187-2.808 3.86-4.624 6.813-4.624 3.908 0 7.036 3.27 7.444 7.832.001.01.18 1.052-.255 2.897z"/></symbol><symbol id="icon-interface" viewBox="0 0 32 32"><path fill="var(--color1, #e74c3c)" d="M17.957 2.308c-.529 0-1.058.11-1.506.332L.799 10.353c-.449.221-.797.584-.797 1.053s.349.832.797 1.053l8.805 4.338a.464.464 0 0 0 .21.047l8.805-.161a.454.454 0 0 0 .194-.047l12.392-6.106c.448-.221.797-.584.797-1.053s-.349-.832-.797-1.053L19.466 2.639a3.442 3.442 0 0 0-1.506-.332zm0 .949c.414 0 .828.068 1.102.203l11.739 5.785c.274.135.287.237.287.233s-.013.098-.287.233l-12.189 6.006-4.363-2.15a.46.46 0 0 0-.405 0l-4.363 2.15-8.276-4.078c-.274-.135-.287-.237-.287-.233s.013-.098.287-.233L16.854 3.46c.274-.135.688-.202 1.102-.202zm1.295 2.133a.228.228 0 0 0-.222.235.227.227 0 0 0 .131.2l6.522 3.214a.229.229 0 1 0 .213-.405l-.011-.006-6.522-3.213a.233.233 0 0 0-.11-.025zm-3.26 1.607a.229.229 0 0 0-.092.435l6.522 3.214a.229.229 0 1 0 .213-.405l-.011-.005-6.522-3.214a.233.233 0 0 0-.11-.025zm-3.261 1.607a.229.229 0 0 0-.092.435l6.522 3.214a.229.229 0 0 0 .202-.41l-6.521-3.214a.233.233 0 0 0-.11-.025zm-5.636.16a.234.234 0 0 0-.104.025L2.1 11.199a.229.229 0 0 0 0 .41l2.282 1.125a.229.229 0 1 0 .213-.405l-.011-.006-1.866-.92 4.475-2.205a.23.23 0 1 0-.099-.436zm6.949 5.721l2.673 1.317-5.552.101 2.879-1.418zm17.317.057a.565.565 0 0 0-.252.059l-17.255 8.381L.815 16.436a.555.555 0 0 0-.51.986l.012.006 13.284 6.669a.553.553 0 0 0 .492.003l17.502-8.5a.556.556 0 0 0-.233-1.058zm-12.029 4.44a.269.269 0 0 0-.125.031l-5.425 2.713-4.871-2.49a.277.277 0 1 0-.252.494l4.996 2.553c.079.04.172.041.25.001l5.551-2.775a.277.277 0 0 0-.123-.527zm12.029 1.097a.565.565 0 0 0-.252.059l-17.255 8.38L.815 21.972a.555.555 0 1 0-.52.98l.022.011 13.284 6.669a.553.553 0 0 0 .492.003l17.502-8.5a.556.556 0 0 0-.233-1.058zm-12.029 4.439a.269.269 0 0 0-.125.031l-5.425 2.713-4.871-2.489a.277.277 0 1 0-.26.49l.008.004 4.996 2.553c.079.04.172.041.25.001l5.551-2.775a.277.277 0 0 0-.123-.527z"/></symbol><symbol id="icon-linked" viewBox="0 0 32 32"><path d="M32 19.461v11.828h-6.861V20.248c0-2.776-.989-4.663-3.472-4.663-1.899 0-3.019 1.277-3.519 2.507-.18.443-.235 1.063-.235 1.675v11.521h-6.855s.092-18.693 0-20.629h6.856v2.924c-.009.024-.029.044-.039.071h.039v-.071c.916-1.405 2.539-3.408 6.183-3.408 4.523 0 7.903 2.948 7.903 9.287zM3.881.711C1.536.711 0 2.25 0 4.279c0 1.975 1.491 3.565 3.793 3.565h.041c2.397 0 3.883-1.591 3.883-3.565C7.67 2.25 6.232.711 3.881.711zM.409 31.289h6.857V10.657H.409v20.632z"/></symbol><symbol id="icon-message" viewBox="0 0 32 32"><path fill="var(--color1, #e74c3c)" d="M29.439 10.444h-7.163V2.542C22.276 1.14 21.127 0 19.714 0H2.56A2.555 2.555 0 0 0-.001 2.542v10.784a2.554 2.554 0 0 0 2.561 2.542h7.163v7.901a2.554 2.554 0 0 0 2.561 2.542h7.839l7.198 5.688v-5.688h2.118A2.554 2.554 0 0 0 32 23.769V12.985a2.554 2.554 0 0 0-2.561-2.542zM2.561 13.865a.556.556 0 0 1-.558-.539V2.542c0-.293.255-.539.558-.539h17.154c.303 0 .558.246.558.539v7.901h-7.988a2.555 2.555 0 0 0-2.561 2.542v.879H2.561zm27.436 9.905a.556.556 0 0 1-.558.539h-4.121v3.556l-4.498-3.556h-8.535a.556.556 0 0 1-.558-.539V12.986c0-.293.255-.539.558-.539H29.44c.302 0 .558.246.558.539V23.77z"/></symbol><symbol id="icon-skype" viewBox="0 0 32 32"><path d="M30.664 18.316c.119-.756.182-1.528.182-2.317 0-8.2-6.647-14.846-14.847-14.846-.787 0-1.562.065-2.317.183A8.97 8.97 0 0 0 1.336 13.684 15.12 15.12 0 0 0 1.154 16c0 8.2 6.647 14.845 14.845 14.845.787 0 1.563-.061 2.318-.18a8.972 8.972 0 0 0 13.682-7.638 8.92 8.92 0 0 0-1.336-4.711zm-7.616 4.435c-.628.904-1.551 1.611-2.756 2.119-1.208.509-2.636.763-4.285.763-1.976 0-3.612-.346-4.904-1.044a6.357 6.357 0 0 1-2.232-2.007c-.574-.837-.864-1.657-.864-2.456 0-.472.18-.882.53-1.216.354-.337.809-.506 1.347-.506.44 0 .819.133 1.127.395.306.263.562.645.772 1.149.251.584.524 1.072.815 1.462.289.385.695.706 1.221.957.52.252 1.213.378 2.08.378 1.186 0 2.145-.257 2.879-.763.737-.511 1.092-1.132 1.092-1.883 0-.599-.191-1.075-.583-1.446-.395-.376-.906-.662-1.539-.862-.636-.202-1.489-.416-2.559-.641-1.436-.314-2.638-.678-3.611-1.098-.974-.421-1.75-.996-2.325-1.722-.576-.733-.864-1.645-.864-2.725 0-1.03.303-1.95.911-2.752.607-.803 1.485-1.419 2.63-1.847 1.141-.428 2.484-.643 4.023-.643 1.231 0 2.295.142 3.196.426.899.285 1.648.662 2.247 1.135.595.472 1.033.969 1.31 1.491.277.523.417 1.035.417 1.534 0 .464-.18.885-.53 1.253s-.799.557-1.322.556c-.472 0-.842-.109-1.099-.339-.25-.223-.513-.578-.797-1.072-.359-.69-.789-1.228-1.289-1.612-.487-.377-1.29-.574-2.408-.572-1.034 0-1.861.211-2.486.625-.628.42-.929.907-.93 1.478.001.358.104.659.311.917.21.26.502.486.878.676.376.193.758.342 1.142.45.389.11 1.034.269 1.93.48 1.124.242 2.144.513 3.06.808.915.297 1.695.654 2.34 1.08a4.56 4.56 0 0 1 1.521 1.621c.365.655.547 1.456.547 2.397a5.203 5.203 0 0 1-.944 3.057z"/></symbol><symbol id="icon-spectacles" viewBox="0 0 32 32"><path fill="var(--color1, #e74c3c)" d="M31.194 15.194h-2.473c-.392-2.662-2.685-4.714-5.455-4.714-2.592 0-4.767 1.799-5.357 4.212l-1.502-.877a.81.81 0 0 0-.813 0l-1.502.877c-.59-2.413-2.765-4.212-5.357-4.212-2.769 0-5.062 2.053-5.455 4.714H.807a.806.806 0 0 0 0 1.612H3.28c.392 2.662 2.685 4.715 5.455 4.715a5.526 5.526 0 0 0 5.496-5.044l1.77-1.033 1.77 1.033a5.526 5.526 0 0 0 5.496 5.044c2.769 0 5.062-2.053 5.455-4.715h2.473a.806.806 0 0 0 0-1.612zm-22.46 4.714c-2.155 0-3.908-1.753-3.908-3.908s1.753-3.908 3.908-3.908 3.908 1.753 3.908 3.908a3.912 3.912 0 0 1-3.908 3.908zm14.532 0c-2.155 0-3.908-1.753-3.908-3.908s1.753-3.908 3.908-3.908c2.155 0 3.908 1.753 3.908 3.908s-1.753 3.908-3.908 3.908z"/></symbol><symbol id="icon-tumblr" viewBox="0 0 32 32"><path d="M21.021 26.792c-.93 0-1.743-.215-2.437-.646-.542-.32-.902-.736-1.083-1.25-.195-.5-.292-1.695-.292-3.584v-8.208h7.583V8.083h-7.583V0h-4.563c-.208 1.639-.583 3-1.125 4.084a8.88 8.88 0 0 1-2.146 2.75c-.889.75-1.965 1.334-3.229 1.75v4.521h3.542v11.229c0 1.486.153 2.604.458 3.354.292.75.841 1.479 1.646 2.188a8.49 8.49 0 0 0 2.875 1.562c1.125.375 2.417.563 3.875.563 1.333 0 2.535-.132 3.604-.396 1.056-.236 2.292-.688 3.709-1.354v-5.042c-1.597 1.056-3.208 1.584-4.833 1.584z"/></symbol><symbol id="icon-twitter" viewBox="0 0 32 32"><path d="M32 6.079a13.112 13.112 0 0 1-3.769 1.034 6.588 6.588 0 0 0 2.885-3.629 13.24 13.24 0 0 1-4.171 1.594 6.545 6.545 0 0 0-4.791-2.074 6.566 6.566 0 0 0-6.395 8.059A18.633 18.633 0 0 1 2.23 4.204a6.515 6.515 0 0 0-.888 3.299 6.56 6.56 0 0 0 2.92 5.463 6.56 6.56 0 0 1-2.973-.824v.082a6.572 6.572 0 0 0 5.265 6.437 6.65 6.65 0 0 1-1.73.23c-.424 0-.834-.042-1.236-.122a6.567 6.567 0 0 0 6.131 4.559 13.17 13.17 0 0 1-8.152 2.806c-.53 0-1.052-.032-1.566-.09a18.554 18.554 0 0 0 10.062 2.953c12.076 0 18.676-10.002 18.676-18.677l-.022-.85A13.122 13.122 0 0 0 32 6.078z"/></symbol><symbol id="icon-vimeo" viewBox="0 0 32 32"><path d="M27.322 2.139c-4.449-.145-7.459 2.35-9.035 7.489.812-.334 1.601-.503 2.37-.503 1.622 0 2.34.91 2.149 2.736-.095 1.106-.812 2.714-2.149 4.825-1.342 2.115-2.345 3.17-3.01 3.17-.864 0-1.652-1.634-2.37-4.897-.241-.961-.672-3.408-1.289-7.348-.579-3.649-2.107-5.354-4.592-5.114-1.051.097-2.626 1.059-4.728 2.882A416.167 416.167 0 0 1 .001 9.557L1.506 11.5c1.436-1.009 2.276-1.511 2.509-1.511 1.101 0 2.13 1.727 3.087 5.182.858 3.173 1.723 6.341 2.585 9.509 1.284 3.457 2.867 5.186 4.728 5.186 3.011 0 6.698-2.832 11.046-8.498 4.206-5.424 6.378-9.698 6.524-12.822.193-4.175-1.361-6.313-4.662-6.408z"/></symbol><symbol id="icon-rss" viewBox="0 0 32 32"><path d="M0 0v4.987c14.919 0 27.013 12.095 27.013 27.013H32C32 14.327 17.673 0 0 0zm0 9.974v4.987c9.411 0 17.039 7.629 17.039 17.039h4.987c0-12.164-9.861-22.026-22.025-22.026zm4.779 12.467a4.78 4.78 0 0 0 0 9.559 4.779 4.779 0 1 0-.001-9.558z"/></symbol></defs></svg>